<svg width="248" height="22" viewBox="0 0 248 22" fill="none" xmlns="http://www.w3.org/2000/svg">
<path d="M0 2.0957H12.6228C14.479 2.0957 15.858 2.40999 16.6536 2.98618C17.4491 3.56237 17.8204 4.55761 17.8204 5.81475C17.8204 6.4957 17.7143 7.07189 17.4491 7.49094C17.1839 7.90999 16.7596 8.32904 16.2293 8.80046C17.9264 9.48142 18.775 10.6862 18.775 12.4148C18.775 13.9338 18.3507 15.0338 17.4491 15.7148C16.6005 16.3957 15.2216 16.71 13.3122 16.71H0V2.0957ZM13.5774 7.54332C14.0017 7.22904 14.1608 6.75761 14.1608 6.12904C14.1608 5.50046 13.9487 5.08142 13.5244 4.81951C13.1001 4.55761 12.4636 4.45285 11.562 4.45285H3.6065V7.96237H11.3499C12.4106 7.96237 13.1531 7.80523 13.5774 7.54332ZM14.6912 13.7243C15.0624 13.41 15.2216 12.8862 15.2216 12.2052C15.2216 11.5243 15.0094 11.0528 14.5851 10.7909C14.1608 10.529 13.5244 10.4243 12.6228 10.4243H3.6065V14.1957H12.6228C13.6305 14.2481 14.3199 14.0909 14.6912 13.7243Z" fill="#F1F1F1"/>
<path d="M33.6254 16.3433C32.3525 15.9243 31.4509 15.2433 30.8145 14.3529C30.2311 13.4624 29.9128 12.2052 29.9128 10.7386C29.9128 9.2719 30.2311 8.06714 30.8145 7.17666C31.3979 6.28619 32.3525 5.60524 33.6254 5.18619C34.8983 4.76714 36.5424 4.55762 38.6109 4.55762H38.6639C40.7323 4.55762 42.4295 4.76714 43.7024 5.18619C44.9753 5.60524 45.8769 6.28619 46.4603 7.17666C47.0437 8.06714 47.3089 9.2719 47.3089 10.6862C47.3089 12.1529 47.0437 13.3576 46.4603 14.2481C45.8769 15.1386 44.9753 15.8195 43.7024 16.291C42.4295 16.71 40.7323 16.9719 38.6639 16.9719H38.6109C36.5424 16.9719 34.8983 16.7624 33.6254 16.3433ZM38.6109 14.3529C39.9368 14.3529 41.0506 14.2481 41.8461 13.9862C42.6417 13.7243 43.2251 13.3576 43.5963 12.8338C43.9676 12.31 44.1267 11.629 44.1267 10.7386C44.1267 9.84809 43.9676 9.16714 43.5963 8.64333C43.2251 8.11952 42.6417 7.70047 41.8461 7.49095C41.0506 7.22905 39.9898 7.12428 38.6109 7.12428H38.5578C37.2319 7.12428 36.1181 7.22905 35.3226 7.49095C34.527 7.75286 33.9436 8.11952 33.5724 8.64333C33.2011 9.16714 33.042 9.90047 33.042 10.7386C33.042 11.629 33.2011 12.31 33.5724 12.8338C33.9436 13.3576 34.527 13.7767 35.3226 13.9862C36.1712 14.2481 37.2319 14.3529 38.6109 14.3529Z" fill="#F1F1F1"/>
<path d="M49.4302 4.76643H52.8245V6.02358C53.514 5.55215 54.4156 5.18548 55.5824 4.8712C56.7493 4.60929 57.9691 4.45215 59.295 4.45215H59.3481C60.9392 4.45215 62.212 4.60929 63.1137 4.97596C64.0153 5.34262 64.6517 5.91881 65.023 6.75691C65.3942 7.59501 65.6064 8.79977 65.6064 10.3712V16.6569H62.2651V11.3664C62.2651 10.4236 62.212 9.69024 62.0529 9.11405C61.8938 8.53786 61.5756 8.06643 60.9922 7.69977C60.4088 7.3331 59.5072 7.12358 58.2343 7.12358H58.1812C57.0144 7.12358 55.9537 7.3331 55.0521 7.69977C54.1505 8.06643 53.4079 8.53786 52.8776 9.06167V16.7617H49.4832V4.76643H49.4302Z" fill="#F1F1F1"/>
<path d="M71.2283 16.3433C69.9554 15.9243 69.0538 15.2433 68.5234 14.3529C67.94 13.4624 67.6748 12.2576 67.6748 10.7386C67.6748 9.11476 67.993 7.85762 68.6295 6.96714C69.2659 6.07666 70.2206 5.44809 71.4935 5.08143C72.7663 4.71476 74.3574 4.55762 76.3728 4.55762C78.2291 4.55762 79.7672 4.71476 80.987 5.02905C82.2069 5.34333 83.1085 5.86714 83.7449 6.54809C84.3814 7.22905 84.8057 8.1719 84.9648 9.32428C85.0178 9.69095 85.0709 10.11 85.0709 10.4767C85.0709 10.8433 85.0709 11.1052 85.0709 11.1576H70.857C70.9101 11.9433 71.1752 12.5719 71.5465 13.0433C71.9177 13.5148 72.5012 13.829 73.2967 14.091C74.0923 14.3005 75.1 14.4052 76.3728 14.4052H76.4259C77.9639 14.4052 79.1307 14.2481 79.9263 13.9338C80.7219 13.6195 81.3053 13.0957 81.6235 12.4148H84.9648C84.6996 13.5148 84.2753 14.4052 83.5858 15.0862C82.9494 15.7671 81.9947 16.2386 80.8279 16.5529C79.6611 16.8671 78.1761 17.0243 76.3728 17.0243H76.3198C74.1983 16.9719 72.5012 16.7624 71.2283 16.3433ZM80.0854 7.38619C79.2899 7.01952 78.017 6.81 76.3728 6.81H76.3198C74.6757 6.81 73.4028 7.01952 72.6072 7.38619C71.7586 7.75286 71.2283 8.38143 71.0161 9.2719H81.6765C81.4113 8.38143 80.881 7.75286 80.0854 7.38619Z" fill="#F1F1F1"/>
<path d="M99.6029 16.3433C98.33 15.9243 97.4284 15.2433 96.845 14.3005C96.2616 13.3576 95.9434 12.1529 95.9434 10.6862C95.9434 9.21952 96.2085 8.06714 96.792 7.17666C97.3754 6.28619 98.277 5.60524 99.5499 5.18619C100.823 4.76714 102.52 4.55762 104.588 4.55762H104.641C107.293 4.55762 109.256 4.92428 110.582 5.60524C111.907 6.28619 112.703 7.38619 113.074 8.95762H109.786C109.468 8.32905 108.884 7.85762 108.089 7.59571C107.293 7.33381 106.126 7.17666 104.694 7.17666H104.641C103.315 7.17666 102.202 7.28143 101.406 7.54333C100.611 7.80524 100.027 8.1719 99.6559 8.69571C99.2847 9.21952 99.1256 9.90047 99.1256 10.791C99.1256 11.6814 99.2847 12.3624 99.6559 12.8862C100.027 13.41 100.611 13.829 101.406 14.0386C102.202 14.3005 103.262 14.4052 104.641 14.4052H104.694C106.126 14.4052 107.293 14.2481 108.089 13.9862C108.884 13.7243 109.468 13.2529 109.786 12.6243H113.074C112.756 14.1433 111.907 15.2957 110.582 15.9767C109.256 16.6576 107.293 17.0243 104.694 17.0243H104.641C102.52 16.9719 100.876 16.7624 99.6029 16.3433Z" fill="#F1F1F1"/>
<path d="M118.431 16.3433C117.158 15.9243 116.257 15.2433 115.62 14.3529C115.037 13.4624 114.719 12.2052 114.719 10.7386C114.719 9.2719 115.037 8.06714 115.62 7.17666C116.204 6.28619 117.158 5.60524 118.431 5.18619C119.704 4.76714 121.348 4.55762 123.417 4.55762H123.47C125.538 4.55762 127.235 4.76714 128.508 5.18619C129.781 5.60524 130.683 6.28619 131.266 7.17666C131.85 8.06714 132.115 9.2719 132.115 10.6862C132.115 12.1529 131.85 13.3576 131.266 14.2481C130.683 15.1386 129.781 15.8195 128.508 16.291C127.235 16.71 125.538 16.9719 123.47 16.9719H123.417C121.348 16.9719 119.651 16.7624 118.431 16.3433ZM123.417 14.3529C124.743 14.3529 125.856 14.2481 126.652 13.9862C127.448 13.7243 128.031 13.3576 128.402 12.8338C128.773 12.31 128.933 11.629 128.933 10.7386C128.933 9.84809 128.773 9.16714 128.402 8.64333C128.031 8.11952 127.448 7.70047 126.652 7.49095C125.856 7.22905 124.796 7.12428 123.417 7.12428H123.364C122.038 7.12428 120.924 7.22905 120.129 7.49095C119.333 7.75286 118.75 8.11952 118.378 8.64333C118.007 9.16714 117.848 9.90047 117.848 10.7386C117.848 11.629 118.007 12.31 118.378 12.8338C118.75 13.3576 119.333 13.7767 120.129 13.9862C120.977 14.2481 122.038 14.3529 123.417 14.3529Z" fill="#F1F1F1"/>
<path d="M134.236 4.76643H137.631V6.02358C138.32 5.55215 139.222 5.18548 140.389 4.8712C141.555 4.60929 142.775 4.45215 144.101 4.45215H144.154C145.745 4.45215 147.018 4.60929 147.92 4.97596C148.821 5.34262 149.458 5.91881 149.829 6.75691C150.2 7.59501 150.413 8.79977 150.413 10.3712V16.6569H147.071V11.3664C147.071 10.4236 147.018 9.69024 146.859 9.11405C146.7 8.53786 146.382 8.06643 145.798 7.69977C145.215 7.3331 144.313 7.12358 143.04 7.12358H142.987C141.821 7.12358 140.76 7.3331 139.858 7.69977C138.957 8.06643 138.214 8.53786 137.684 9.06167V16.7617H134.289V4.76643H134.236Z" fill="#F1F1F1"/>
<path d="M165.21 9.89977C165.899 10.0045 166.536 10.3188 167.066 10.8426C167.596 11.3664 167.862 12.1521 167.862 13.2521C167.862 14.3521 167.596 15.1379 167.013 15.6617C166.43 16.1855 165.793 16.4998 165.051 16.6045C164.308 16.7093 163.406 16.7617 162.293 16.7617H157.625C155.769 16.7617 154.39 16.4474 153.595 15.8712C152.746 15.295 152.322 14.2998 152.322 12.9902H155.08C155.08 13.5141 155.292 13.9331 155.663 14.1426C156.034 14.3521 156.724 14.5093 157.625 14.5093H162.664C163.513 14.5093 164.096 14.4045 164.414 14.195C164.732 13.9855 164.891 13.6712 164.891 13.2521C164.891 12.7807 164.732 12.4141 164.467 12.2045C164.202 11.995 163.778 11.8902 163.247 11.8902H159.376C158.58 11.8902 157.838 11.8902 157.201 11.8902C155.451 11.8379 154.231 11.5236 153.489 10.9474C152.746 10.3712 152.375 9.42834 152.375 8.1712C152.375 7.01882 152.64 6.2331 153.17 5.65691C153.701 5.1331 154.284 4.81881 154.974 4.66167C155.663 4.55691 156.565 4.45215 157.625 4.45215H162.081C163.406 4.45215 164.467 4.60929 165.21 4.8712C165.952 5.1331 166.536 5.55215 166.854 6.12834C167.172 6.70453 167.331 7.43786 167.331 8.38072H164.361C164.361 7.80453 164.202 7.3331 163.831 7.12358C163.459 6.91405 162.876 6.75691 162.028 6.75691H157.466C156.989 6.75691 156.565 6.80929 156.246 6.86167C155.928 6.91405 155.716 7.0712 155.504 7.28072C155.345 7.49024 155.239 7.80453 155.239 8.22358C155.239 8.64262 155.345 8.95691 155.504 9.21881C155.663 9.42834 155.928 9.58548 156.246 9.63786C156.565 9.69024 156.936 9.74262 157.466 9.74262H162.505C163.619 9.74262 164.467 9.795 165.21 9.89977Z" fill="#F1F1F1"/>
<path d="M186.159 16.7618H182.765V15.5047C182.075 15.9761 181.174 16.3428 180.06 16.6571C178.893 16.919 177.673 17.0761 176.348 17.0761H176.294C174.703 17.0761 173.43 16.919 172.529 16.5523C171.627 16.1856 170.991 15.6095 170.62 14.7714C170.248 13.9333 170.036 12.7285 170.036 11.1571V4.87136H173.377V10.2666C173.377 11.2095 173.43 11.9428 173.59 12.519C173.749 13.0952 174.067 13.5666 174.65 13.9333C175.234 14.2999 176.135 14.5095 177.408 14.5095H177.461C178.628 14.5095 179.689 14.2999 180.59 13.9333C181.492 13.5666 182.235 13.0952 182.765 12.5714V4.7666H186.159V16.7618Z" fill="#F1F1F1"/>
<path d="M188.281 0H191.622V14.1952H188.281V0ZM188.281 14.1952H191.622V16.7619H188.281V14.1952Z" fill="#F1F1F1"/>
<path d="M198.41 16.2908C197.562 15.9765 196.925 15.4527 196.554 14.667C196.183 13.8813 196.024 12.7813 196.024 11.367V7.28125H193.054V4.81935H196.024V2.09554L199.259 1.78125V4.81935H204.244V7.33363H199.259V11.4193C199.259 12.1527 199.365 12.7289 199.577 13.1479C199.789 13.567 200.055 13.8289 200.426 13.986C200.797 14.1432 201.274 14.1955 201.911 14.1955H204.669V16.8146H202.07C200.532 16.7622 199.312 16.6051 198.41 16.2908Z" fill="#F1F1F1"/>
<path d="M206.843 0H210.185V2.77619H206.843V0ZM206.843 7.07143V4.76667H210.185V14.4571V16.7619H206.843V14.4571V7.07143Z" fill="#F1F1F1"/>
<path d="M212.306 4.76643H215.701V6.02358C216.39 5.55215 217.292 5.18548 218.458 4.8712C219.625 4.60929 220.845 4.45215 222.171 4.45215H222.224C223.815 4.45215 225.088 4.60929 225.99 4.97596C226.891 5.34262 227.528 5.91881 227.899 6.75691C228.27 7.59501 228.482 8.79977 228.482 10.3712V16.6569H225.141V11.3664C225.141 10.4236 225.088 9.69024 224.929 9.11405C224.77 8.53786 224.452 8.06643 223.868 7.69977C223.285 7.3331 222.383 7.12358 221.11 7.12358H221.057C219.89 7.12358 218.83 7.3331 217.928 7.69977C217.026 8.06643 216.284 8.53786 215.754 9.06167V16.7617H212.359V4.76643H212.306Z" fill="#F1F1F1"/>
<path d="M234.9 21.6855C233.627 21.476 232.619 21.2141 231.93 20.8474V18.2283C232.619 18.4902 233.627 18.7521 234.847 18.9617C236.12 19.1712 237.445 19.276 238.877 19.276H238.931C240.681 19.276 242.06 19.0664 243.067 18.6474C244.075 18.2283 244.552 17.5998 244.552 16.7093V14.8236C243.333 16.0283 241.211 16.6045 238.188 16.6045H238.135C235.483 16.6045 233.521 16.1331 232.248 15.1902C231.028 14.2474 230.392 12.7283 230.392 10.5807C230.392 8.4331 231.028 6.91405 232.248 5.91882C233.468 4.92358 235.43 4.45215 238.135 4.45215H238.188C241.211 4.45215 243.28 5.08072 244.552 6.28548V4.71405H247.947V16.6045C247.947 17.5474 247.788 18.3855 247.522 19.1188C247.204 19.8521 246.462 20.4807 245.189 21.0569C243.916 21.6331 241.954 21.895 239.355 21.895H239.302C237.658 21.9998 236.173 21.895 234.9 21.6855ZM243.227 13.4093C244.128 12.8331 244.552 11.9426 244.552 10.6855C244.552 9.42834 244.075 8.53786 243.173 7.96167C242.272 7.38548 240.787 7.12358 238.771 7.12358H238.718C237.392 7.12358 236.332 7.22834 235.536 7.49024C234.741 7.75215 234.157 8.11882 233.786 8.64262C233.415 9.16643 233.256 9.84739 233.256 10.6855C233.256 11.995 233.68 12.8855 234.528 13.4617C235.377 14.0379 236.809 14.2998 238.718 14.2998H238.771C240.84 14.2474 242.325 13.9855 243.227 13.4093Z" fill="#F1F1F1"/>
</svg>
